<?xml version="1.0" encoding="UTF-8"?>
<svg width="45px" height="45px" viewBox="0 0 45 45" version="1.1" xmlns="http://www.w3.org/2000/svg" xmlns:xlink="http://www.w3.org/1999/xlink">
    <!-- Generator: Sketch 55.2 (78181) - https://sketchapp.com -->
    <title>Ship wheel</title>
    <desc>Created with Sketch.</desc>
    <g id="Game-Page" stroke="none" stroke-width="1" fill="none" fill-rule="evenodd">
        <g id="Artboard" transform="translate(-272.000000, -221.000000)">
            <g id="Ship-wheel" transform="translate(272.000000, 221.000000)">
                <circle id="Oval" stroke="#000000" stroke-width="2.5" cx="22.534658" cy="22.7031603" r="14.7799097"></circle>
                <circle id="Oval-Copy" stroke="#000000" stroke-width="2.5" cx="22.534658" cy="22.7031603" r="5.84085779"></circle>
                <path d="M21.702705,5.2379411 C21.702705,4.20562069 20.6554255,4.89769216 20.6554255,2.44884608 C20.6554255,0.816282026 21.3004269,2.84217094e-14 22.5904298,2.84217094e-14 C23.7598596,2.84217094e-14 24.3445745,0.816282026 24.3445745,2.44884608 C24.3445745,4.89769216 23.45778,4.20562069 23.45778,5.2379411 C23.45778,5.9261547 23.9109715,6.11613315 23.9109715,6.29966176 L23.9109715,16.8639958 L21.269888,16.8639958 C21.269888,9.82110645 21.269888,6.29966176 21.269888,6.29966176 C21.269888,6.11613315 21.702705,5.9261547 21.702705,5.2379411 Z" id="Path" fill="#000000"></path>
                <path d="M34.1423462,9.73010838 C34.872307,9.00014762 33.6424001,8.74897764 35.3739958,7.01738197 C36.5283929,5.86298485 37.5616763,5.74187118 38.4738461,6.65404093 C39.3007578,7.48095268 39.1370151,8.4716071 37.982618,9.62600422 C36.2510224,11.3575999 36.1133324,10.2411731 35.3833716,10.9711338 C34.8967311,11.4577743 35.0828509,11.9125642 34.9530766,12.0423385 L27.4829643,19.5124508 L25.6154362,17.6449227 L33.0855485,10.1748104 C33.2153228,10.0450361 33.6557057,10.2167489 34.1423462,9.73010838 Z" id="Path" fill="#000000"></path>
                <path d="M39.7620589,21.702705 C40.7943793,21.702705 40.1023078,20.6554255 42.5511539,20.6554255 C44.183718,20.6554255 45,21.3004269 45,22.5904298 C45,23.7598596 44.183718,24.3445745 42.5511539,24.3445745 C40.1023078,24.3445745 40.7943793,23.45778 39.7620589,23.45778 C39.0738453,23.45778 38.8838668,23.9109715 38.7003382,23.9109715 L28.1360042,23.9109715 L28.1360042,21.269888 L38.7003382,21.269888 C38.8838668,21.269888 39.0738453,21.702705 39.7620589,21.702705 Z" id="Path" fill="#000000"></path>
                <path d="M35.2698916,34.1423462 C35.9998524,34.872307 36.2510224,33.6424001 37.982618,35.3739958 C39.1370151,36.5283929 39.2581288,37.5616763 38.3459591,38.4738461 C37.5190473,39.3007578 36.5283929,39.1370151 35.3739958,37.982618 C33.6424001,36.2510224 34.7588269,36.1133324 34.0288662,35.3833716 C33.5422257,34.8967311 33.0874358,35.0828509 32.9576615,34.9530766 L25.4875492,27.4829643 L27.3550773,25.6154362 L34.8251896,33.0855485 C34.9549639,33.2153228 34.7832511,33.6557057 35.2698916,34.1423462 Z" id="Path" fill="#000000"></path>
                <path d="M23.297295,39.7620589 C23.297295,40.7943793 24.3445745,40.1023078 24.3445745,42.5511539 C24.3445745,44.183718 23.6995731,45 22.4095702,45 C21.2401404,45 20.6554255,44.183718 20.6554255,42.5511539 C20.6554255,40.1023078 21.54222,40.7943793 21.54222,39.7620589 C21.54222,39.0738453 21.0890285,38.8838668 21.0890285,38.7003382 L21.0890285,28.1360042 L23.730112,28.1360042 L23.730112,38.7003382 C23.730112,38.8838668 23.297295,39.0738453 23.297295,39.7620589 Z" id="Path" fill="#000000"></path>
                <path d="M10.8576538,35.2698916 C10.127693,35.9998524 11.3575999,36.2510224 9.62600422,37.982618 C8.4716071,39.1370151 7.43832367,39.2581288 6.52615392,38.3459591 C5.69924217,37.5190473 5.86298485,36.5283929 7.01738197,35.3739958 C8.74897764,33.6424001 8.8866676,34.7588269 9.61662836,34.0288662 C10.1032689,33.5422257 9.91714911,33.0874358 10.0469234,32.9576615 L17.5170357,25.4875492 L19.3845638,27.3550773 L11.9144515,34.8251896 C11.7846772,34.9549639 11.3442943,34.7832511 10.8576538,35.2698916 Z" id="Path" fill="#000000"></path>
                <path d="M5.2379411,23.297295 C4.20562069,23.297295 4.89769216,24.3445745 2.44884608,24.3445745 C0.816282026,24.3445745 4.26325641e-14,23.6995731 4.26325641e-14,22.4095702 C4.26325641e-14,21.2401404 0.816282026,20.6554255 2.44884608,20.6554255 C4.89769216,20.6554255 4.20562069,21.54222 5.2379411,21.54222 C5.9261547,21.54222 6.11613315,21.0890285 6.29966176,21.0890285 L16.8639958,21.0890285 L16.8639958,23.730112 L6.29966176,23.730112 C6.11613315,23.730112 5.9261547,23.297295 5.2379411,23.297295 Z" id="Path" fill="#000000"></path>
                <path d="M9.73010838,10.8576538 C9.00014762,10.127693 8.74897764,11.3575999 7.01738197,9.62600422 C5.86298485,8.4716071 5.74187118,7.43832367 6.65404093,6.52615392 C7.48095268,5.69924217 8.4716071,5.86298485 9.62600422,7.01738197 C11.3575999,8.74897764 10.2411731,8.8866676 10.9711338,9.61662836 C11.4577743,10.1032689 11.9125642,9.91714911 12.0423385,10.0469234 L19.5124508,17.5170357 L17.6449227,19.3845638 L10.1748104,11.9144515 C10.0450361,11.7846772 10.2167489,11.3442943 9.73010838,10.8576538 Z" id="Path" fill="#000000"></path>
            </g>
        </g>
    </g>
</svg>